<?xml version="1.0" encoding="UTF-8"?>
<svg width="512" height="512" viewBox="0 0 512 512" xmlns="http://www.w3.org/2000/svg">
  <!-- Background Circle -->
  <circle cx="256" cy="256" r="240" fill="#1a1a1a" stroke="#333" stroke-width="2"/>
  
  <!-- Twingate Logo inspired design -->
  <!-- Top gate -->
  <path d="M156 180 L356 180 L356 220 L296 220 L296 260 L356 260 L356 300 L156 300 L156 260 L216 260 L216 220 L156 220 Z" 
        fill="#4F46E5" stroke="#4F46E5" stroke-width="2"/>
  
  <!-- Bottom gate -->
  <path d="M156 320 L356 320 L356 360 L296 360 L296 400 L356 400 L356 440 L156 440 L156 400 L216 400 L216 360 L156 360 Z" 
        fill="#06B6D4" stroke="#06B6D4" stroke-width="2"/>
  
  <!-- Connection lines -->
  <line x1="256" y1="300" x2="256" y2="320" stroke="#10B981" stroke-width="4"/>
  <circle cx="256" cy="310" r="6" fill="#10B981"/>
  
  <!-- Network nodes -->
  <circle cx="180" cy="140" r="8" fill="#F59E0B"/>
  <circle cx="256" cy="140" r="8" fill="#F59E0B"/>
  <circle cx="332" cy="140" r="8" fill="#F59E0B"/>
  
  <!-- Connection to network -->
  <line x1="180" y1="148" x2="180" y2="180" stroke="#F59E0B" stroke-width="2"/>
  <line x1="256" y1="148" x2="256" y2="180" stroke="#F59E0B" stroke-width="2"/>
  <line x1="332" y1="148" x2="332" y2="180" stroke="#F59E0B" stroke-width="2"/>
</svg> 